<svg width="96" height="96" xmlns="http://www.w3.org/2000/svg" xmlns:xlink="http://www.w3.org/1999/xlink" xml:space="preserve" overflow="hidden"><defs><clipPath id="clip0"><rect x="-283" y="480" width="96" height="96"/></clipPath></defs><g clip-path="url(#clip0)" transform="translate(283 -480)"><path d="M-204.4 499.005C-203.6 499.035-202.975 499.705-203 500.505L-203 541.817C-203.02 542.582-203.635 543.197-204.4 543.217L-216.6 543.217-216.6 554.117-226.768 543.72-227.356 543.12-265.6 543.12C-266.356 543.137-266.983 542.537-267 541.781-267 541.76-267 541.74-267 541.72L-267 500.406C-266.98 499.641-266.365 499.026-265.6 499.006L-204.4 499.006M-204.4 497.006-265.6 497.006C-267.47 497.026-268.98 498.536-269 500.406L-269 541.717C-269.016 543.579-267.518 545.102-265.656 545.117-265.638 545.117-265.619 545.117-265.6 545.117L-228.2 545.117-214.6 559.017-214.6 545.217-204.4 545.217C-202.53 545.198-201.02 543.687-201 541.817L-201 500.506C-200.977 498.602-202.496 497.038-204.4 497.006Z" stroke="#FFCA00" stroke-width="4" fill="#FFCA00"/></g></svg>