<svg width="96" height="96" xmlns="http://www.w3.org/2000/svg" xmlns:xlink="http://www.w3.org/1999/xlink" xml:space="preserve" overflow="hidden"><defs><clipPath id="clip0"><rect x="8" y="480" width="96" height="96"/></clipPath></defs><g clip-path="url(#clip0)" transform="translate(-8 -480)"><path d="M86.6 499.005C87.3998 499.035 88.0253 499.705 88 500.505L88 541.817C87.98 542.582 87.3648 543.197 86.6 543.217L74.4 543.217 74.4 554.117 64.232 543.72 63.644 543.12 25.4 543.12C24.6436 543.137 24.0168 542.537 24 541.781 23.9996 541.76 23.9996 541.74 24 541.72L24 500.406C24.02 499.641 24.6352 499.026 25.4 499.006L86.6 499.006M86.6 497.006 25.4 497.006C23.5304 497.026 22.0195 498.536 22 500.406L22 541.717C21.9845 543.579 23.4815 545.102 25.3438 545.117 25.3625 545.117 25.3813 545.117 25.4 545.117L62.8 545.117 76.4 559.017 76.4 545.217 86.6 545.217C88.4696 545.198 89.9805 543.687 90 541.817L90 500.506C90.0234 498.602 88.5036 497.038 86.6 497.006Z" stroke="#000000" stroke-width="4"/></g></svg>