<svg width="96" height="96" xmlns="http://www.w3.org/2000/svg" xmlns:xlink="http://www.w3.org/1999/xlink" xml:space="preserve" overflow="hidden"><defs><clipPath id="clip0"><rect x="-12" y="374" width="96" height="96"/></clipPath></defs><g clip-path="url(#clip0)" transform="translate(12 -374)"><path d="M36 384C15 384-2 401-2 422-2 443 15 460 36 460 57 460 74 443 74 422 74 401 57 384 36 384ZM36 390C53.6 390 68 404.4 68 422 68 439.6 53.6 454 36 454 18.4 454 4 439.6 4 422 4 404.4 18.4 390 36 390"/><path d="M20.4 437.6 42.4 428.6 51.4 406.6 29.4 415.8 20.4 437.6ZM36 420C37.2 420 38 420.8 38 422 38 423.2 37.2 424 36 424 34.8 424 34 423.2 34 422 34 420.8 34.8 420 36 420"/></g></svg>