<svg width="96" height="96" xmlns="http://www.w3.org/2000/svg" xmlns:xlink="http://www.w3.org/1999/xlink" xml:space="preserve" overflow="hidden"><defs><clipPath id="clip0"><rect x="-303" y="374" width="96" height="96"/></clipPath></defs><g clip-path="url(#clip0)" transform="translate(303 -374)"><path d="M-255 384C-276 384-293 401-293 422-293 443-276 460-255 460-234 460-217 443-217 422-217 401-234 384-255 384ZM-255 390C-237.4 390-223 404.4-223 422-223 439.6-237.4 454-255 454-272.6 454-287 439.6-287 422-287 404.4-272.6 390-255 390" fill="#FFCA00"/><path d="M-270.6 437.6-248.6 428.6-239.6 406.6-261.6 415.8-270.6 437.6ZM-255 420C-253.8 420-253 420.8-253 422-253 423.2-253.8 424-255 424-256.2 424-257 423.2-257 422-257 420.8-256.2 420-255 420" fill="#FFCA00"/></g></svg>