<svg width="96" height="96" xmlns="http://www.w3.org/2000/svg" xmlns:xlink="http://www.w3.org/1999/xlink" xml:space="preserve" overflow="hidden"><defs><clipPath id="clip0"><rect x="-348" y="105" width="96" height="96"/></clipPath></defs><g clip-path="url(#clip0)" transform="translate(348 -105)"><path d="M-299.995 125.25-299.993 125.25-262.535 160.833-257.995 156.953-299.993 117-299.995 117-341.993 156.953-337.453 160.833-299.995 125.25Z" fill="#FFCA00"/><path d="M-329.995 159.265-329.995 189-305.995 189-305.995 164-293.995 164-293.995 189-269.995 189-269.995 159.264-299.994 130.766-329.995 159.265Z" fill="#FFCA00"/><path d="M-281.99 124.104-281.989 128.02C-279.881 128.037-277.867 128.893-276.394 130.399-274.903 131.884-274.05 133.891-274.014 135.995L-270.098 135.996C-270.128 129.441-275.435 124.134-281.99 124.104Z" fill="#FFCA00"/><path d="M-262.266 135.998C-262.192 125.177-270.905 116.345-281.725 116.272-281.814 116.271-281.903 116.271-281.992 116.272L-281.991 120.188C-273.282 120.166-266.204 127.208-266.182 135.916-266.182 135.943-266.182 135.97-266.182 135.997Z" fill="#FFCA00"/><path d="M-281.994 108.3-281.993 112.216C-268.883 112.276-258.27 122.889-258.21 135.999L-254.294 136C-254.302 120.705-266.699 108.307-281.994 108.3Z" fill="#FFCA00"/></g></svg>