<svg width="96" height="96" xmlns="http://www.w3.org/2000/svg" xmlns:xlink="http://www.w3.org/1999/xlink" xml:space="preserve" overflow="hidden"><defs><clipPath id="clip0"><rect x="-57" y="105" width="96" height="96"/></clipPath></defs><g clip-path="url(#clip0)" transform="translate(57 -105)"><path d="M-8.995 125.25-8.993 125.25 28.465 160.833 33.005 156.953-8.993 117-8.995 117-50.993 156.953-46.453 160.833-8.995 125.25Z"/><path d="M-38.995 159.265-38.995 189-14.995 189-14.995 164-2.995 164-2.995 189 21.005 189 21.005 159.264-8.994 130.766-38.995 159.265Z"/><path d="M9.0102 124.104 9.0113 128.02C11.1187 128.037 13.1325 128.893 14.6064 130.399 16.0967 131.884 16.9501 133.891 16.9857 135.995L20.9018 135.996C20.8719 129.441 15.5653 124.134 9.0102 124.104Z"/><path d="M28.7341 135.998C28.8077 125.177 20.0954 116.345 9.2746 116.272 9.1857 116.271 9.0969 116.271 9.008 116.272L9.0091 120.188C17.7179 120.166 24.7958 127.208 24.818 135.916 24.8181 135.943 24.8181 135.97 24.818 135.997Z"/><path d="M9.0058 108.3 9.0069 112.216C22.1171 112.276 32.7302 122.889 32.7901 135.999L36.7063 136C36.6984 120.705 24.301 108.307 9.0058 108.3Z"/></g></svg>