<svg width="96" height="96" xmlns="http://www.w3.org/2000/svg" xmlns:xlink="http://www.w3.org/1999/xlink" xml:space="preserve" overflow="hidden"><defs><clipPath id="clip0"><rect x="-40" y="293" width="96" height="96"/></clipPath></defs><g clip-path="url(#clip0)" transform="translate(40 -293)"><path d="M25 308.77C19.19 308.77 12.924 312.43 8 322.2 3.077 312.432-3.191 308.77-9 308.77-18.057 308.77-26 317.67-26 326.2-26 347.2 8 373.2 8 373.2 8 373.2 42 347.2 42 326.2 42 317.671 34.056 308.77 25 308.77ZM8 370.647C2.015 365.813-24 343.783-24 326.2-23.8428 322.243-22.2187 318.487-19.444 315.662-16.773 312.679-13.0018 310.912-9 310.77-3.112 310.77 2.149 315.034 6.214 323.1L8 326.644 9.786 323.1C13.851 315.034 19.112 310.77 25 310.77 32.57 310.77 40 318.413 40 326.2 40 343.783 13.985 365.813 8 370.647Z" stroke="#000000" stroke-width="4"/></g></svg>