<svg width="96" height="96" xmlns="http://www.w3.org/2000/svg" xmlns:xlink="http://www.w3.org/1999/xlink" xml:space="preserve" overflow="hidden"><defs><clipPath id="clip0"><rect x="-433" y="293" width="96" height="96"/></clipPath></defs><g clip-path="url(#clip0)" transform="translate(433 -293)"><path d="M-425 313-425 369-345 369-345 313-425 313ZM-383.6 347.9C-384.4 348.7-385.6 348.7-386.4 347.9L-416 319-353.9 319-383.6 347.9ZM-399.5 340.7-419 360.3-419 321.6-399.5 340.7ZM-396.6 343.5-389.1 350.8C-387.9 351.9-386.4 352.5-384.9 352.5-383.4 352.5-381.9 351.9-380.7 350.8L-373.2 343.5-353.8 363-416.1 363-396.6 343.5ZM-370.5 340.7-351 321.7-351 360.2-370.5 340.7Z" fill="#FFCA00"/></g></svg>