<svg width="96" height="96" xmlns="http://www.w3.org/2000/svg" xmlns:xlink="http://www.w3.org/1999/xlink" xml:space="preserve" overflow="hidden"><defs><clipPath id="clip0"><rect x="-142" y="293" width="96" height="96"/></clipPath></defs><g clip-path="url(#clip0)" transform="translate(142 -293)"><path d="M-134 313-134 369-54 369-54 313-134 313ZM-92.6 347.9C-93.4 348.7-94.6 348.7-95.4 347.9L-125 319-62.9 319-92.6 347.9ZM-108.5 340.7-128 360.3-128 321.6-108.5 340.7ZM-105.6 343.5-98.1 350.8C-96.9 351.9-95.4 352.5-93.9 352.5-92.4 352.5-90.9 351.9-89.7 350.8L-82.2 343.5-62.8 363-125.1 363-105.6 343.5ZM-79.5 340.7-60 321.7-60 360.2-79.5 340.7Z"/></g></svg>