<svg width="96" height="96" xmlns="http://www.w3.org/2000/svg" xmlns:xlink="http://www.w3.org/1999/xlink" xml:space="preserve" overflow="hidden"><defs><clipPath id="clip0"><rect x="-126" y="423" width="96" height="96"/></clipPath></defs><g clip-path="url(#clip0)" transform="translate(126 -423)"><path d="M-44.81 496.19C-50.44 493.37-58.89 486.19-59.69 459.56-59.98 449.77-66.05 445.56-71.13 443.76-70.9405 443.11-70.8462 442.437-70.85 441.76-70.85 437.811-74.0512 434.61-78 434.61-81.9488 434.61-85.15 437.811-85.15 441.76-85.1538 442.437-85.0595 443.11-84.87 443.76-89.95 445.56-96.02 449.76-96.31 459.56-97.11 486.16-105.56 493.36-111.19 496.18-113.48 497.32-112.33 500-111 500L-85.5 500C-85.0716 504.142-81.3665 507.153-77.2244 506.724-73.6738 506.357-70.8672 503.551-70.5 500L-45 500C-43.67 500-42.52 497.33-44.81 496.19ZM-81.15 441.81C-81.15 440.07-79.7397 438.66-78 438.66-76.2603 438.66-74.85 440.07-74.85 441.81-74.8543 442.126-74.9048 442.439-75 442.74-75.9895 442.548-76.9926 442.434-78 442.4L-78 442.4C-79.0069 442.441-80.0095 442.554-81 442.74-81.0969 442.439-81.1475 442.126-81.15 441.81Z"/></g></svg>