<svg width="96" height="96" xmlns="http://www.w3.org/2000/svg" xmlns:xlink="http://www.w3.org/1999/xlink" xml:space="preserve" overflow="hidden"><defs><clipPath id="clip0"><rect x="-417" y="423" width="96" height="96"/></clipPath></defs><g clip-path="url(#clip0)" transform="translate(417 -423)"><path d="M-335.81 496.19C-341.44 493.37-349.89 486.19-350.69 459.56-350.98 449.77-357.05 445.56-362.13 443.76-361.94 443.11-361.846 442.437-361.85 441.76-361.85 437.811-365.051 434.61-369 434.61-372.949 434.61-376.15 437.811-376.15 441.76-376.154 442.437-376.06 443.11-375.87 443.76-380.95 445.56-387.02 449.76-387.31 459.56-388.11 486.16-396.56 493.36-402.19 496.18-404.48 497.32-403.33 500-402 500L-376.5 500C-376.072 504.142-372.367 507.153-368.224 506.724-364.674 506.357-361.867 503.551-361.5 500L-336 500C-334.67 500-333.52 497.33-335.81 496.19ZM-372.15 441.81C-372.15 440.07-370.74 438.66-369 438.66-367.26 438.66-365.85 440.07-365.85 441.81-365.854 442.126-365.905 442.439-366 442.74-366.99 442.548-367.993 442.434-369 442.4L-369 442.4C-370.007 442.441-371.009 442.554-372 442.74-372.097 442.439-372.147 442.126-372.15 441.81Z" fill="#FFCA00"/></g></svg>