<svg width="96" height="96" xmlns="http://www.w3.org/2000/svg" xmlns:xlink="http://www.w3.org/1999/xlink" xml:space="preserve" overflow="hidden"><defs><clipPath id="clip0"><rect x="-356" y="519" width="96" height="96"/></clipPath></defs><g clip-path="url(#clip0)" transform="translate(356 -519)"><path d="M-292 549C-292 557.837-299.163 565-308 565-316.837 565-324 557.837-324 549-324 540.163-316.837 533-308 533-299.163 533-292 540.163-292 549Z" fill="#FFCA00"/><path d="M-276 601-276 585C-276 582.6-277.2 580.2-279.2 578.6-283.6 575-289.2 572.6-294.8 571-298.8 569.8-303.2 569-308 569-312.4 569-316.8 569.8-321.2 571-326.8 572.6-332.4 575.4-336.8 578.6-338.8 580.2-340 582.6-340 585L-340 601-276 601Z" fill="#FFCA00"/></g></svg>