<svg width="96" height="96" xmlns="http://www.w3.org/2000/svg" xmlns:xlink="http://www.w3.org/1999/xlink" xml:space="preserve" overflow="hidden"><defs><clipPath id="clip0"><rect x="-65" y="519" width="96" height="96"/></clipPath></defs><g clip-path="url(#clip0)" transform="translate(65 -519)"><path d="M-1 549C-1 557.837-8.16344 565-17 565-25.8366 565-33 557.837-33 549-33 540.163-25.8366 533-17 533-8.16344 533-1 540.163-1 549Z"/><path d="M15 601 15 585C15 582.6 13.8 580.2 11.8 578.6 7.4 575 1.8 572.6-3.8 571-7.8 569.8-12.2 569-17 569-21.4 569-25.8 569.8-30.2 571-35.8 572.6-41.4 575.4-45.8 578.6-47.8 580.2-49 582.6-49 585L-49 601 15 601Z"/></g></svg>