<svg width="96" height="96" xmlns="http://www.w3.org/2000/svg" xmlns:xlink="http://www.w3.org/1999/xlink" xml:space="preserve" overflow="hidden"><defs><clipPath id="clip0"><rect x="-333" y="201" width="96" height="96"/></clipPath></defs><g clip-path="url(#clip0)" transform="translate(333 -201)"><path d="M-247.5 276.6-260 264.1C-261.7 262.4-264 261.8-266.2 262.2L-270.6 257.8C-266.7 252.8-264.4 246.4-264.4 239.6-264.4 223.1-277.9 209.6-294.4 209.6-310.9 209.6-324.4 223.1-324.4 239.6-324.4 256.1-310.9 269.6-294.4 269.6-287.6 269.6-281.3 267.3-276.2 263.4L-271.8 267.8C-272.2 270-271.6 272.3-269.9 274L-257.4 286.5C-256 287.9-254.2 288.6-252.4 288.6-250.6 288.6-248.8 287.9-247.4 286.5-244.8 283.7-244.8 279.3-247.5 276.6ZM-294.5 263.5C-307.7 263.5-318.5 252.7-318.5 239.5-318.5 226.3-307.7 215.5-294.5 215.5-281.3 215.5-270.5 226.3-270.5 239.5-270.5 252.7-281.3 263.5-294.5 263.5Z" fill="#FFCA00"/></g></svg>