<svg width="96" height="96" xmlns="http://www.w3.org/2000/svg" xmlns:xlink="http://www.w3.org/1999/xlink" xml:space="preserve" overflow="hidden"><defs><clipPath id="clip0"><rect x="-42" y="201" width="96" height="96"/></clipPath></defs><g clip-path="url(#clip0)" transform="translate(42 -201)"><path d="M43.5 276.6 31 264.1C29.3 262.4 27 261.8 24.8 262.2L20.4 257.8C24.3 252.8 26.6 246.4 26.6 239.6 26.6 223.1 13.1 209.6-3.4 209.6-19.9 209.6-33.4 223.1-33.4 239.6-33.4 256.1-19.9 269.6-3.4 269.6 3.4 269.6 9.7 267.3 14.8 263.4L19.2 267.8C18.8 270 19.4 272.3 21.1 274L33.6 286.5C35 287.9 36.8 288.6 38.6 288.6 40.4 288.6 42.2 287.9 43.6 286.5 46.2 283.7 46.2 279.3 43.5 276.6ZM-3.5 263.5C-16.7 263.5-27.5 252.7-27.5 239.5-27.5 226.3-16.7 215.5-3.5 215.5 9.7 215.5 20.5 226.3 20.5 239.5 20.5 252.7 9.7 263.5-3.5 263.5Z"/></g></svg>